<?xml version="1.0" encoding="UTF-8" standalone="no"?>
<!-- Created with Inkscape (http://www.inkscape.org/) -->

<svg
   width="124.70119mm"
   height="108.47994mm"
   viewBox="0 0 124.70119 108.47994"
   version="1.1"
   id="svg33335"
   sodipodi:docname="inverted_logo.svg"
   inkscape:version="1.1.2 (b8e25be833, 2022-02-05)"
   xmlns:inkscape="http://www.inkscape.org/namespaces/inkscape"
   xmlns:sodipodi="http://sodipodi.sourceforge.net/DTD/sodipodi-0.dtd"
   xmlns="http://www.w3.org/2000/svg"
   xmlns:svg="http://www.w3.org/2000/svg">
  <sodipodi:namedview
     id="namedview12"
     pagecolor="#ffffff"
     bordercolor="#666666"
     borderopacity="1.0"
     inkscape:pageshadow="2"
     inkscape:pageopacity="0.0"
     inkscape:pagecheckerboard="0"
     inkscape:document-units="mm"
     showgrid="true"
     showguides="true"
     inkscape:guide-bbox="true"
     inkscape:snap-nodes="false"
     inkscape:snap-others="false"
     inkscape:object-nodes="false"
     inkscape:snap-global="false"
     inkscape:zoom="1.4142136"
     inkscape:cx="245.01249"
     inkscape:cy="309.00566"
     inkscape:window-width="1920"
     inkscape:window-height="1027"
     inkscape:window-x="-8"
     inkscape:window-y="22"
     inkscape:window-maximized="1"
     inkscape:current-layer="svg33335">
    <inkscape:grid
       type="xygrid"
       id="grid831" />
  </sodipodi:namedview>
  <defs
     id="defs33332" />
  <g
     id="g838"
     transform="matrix(0.26458333,0,0,0.26458333,202.72836,-17.645184)"
     style="fill:#203239;fill-opacity:1;stroke-width:0;stroke-miterlimit:4;stroke-dasharray:none">
    <path
       id="path834"
       style="opacity:1;fill:#203239;fill-opacity:1;stroke:#000000;stroke-width:0;stroke-linecap:butt;stroke-linejoin:miter;stroke-miterlimit:4;stroke-dasharray:none;stroke-opacity:1"
       d="m -565.16027,66.708984 c -1.28177,9.82e-4 -2.5968,-0.04592 -3.89844,0.0059 -4.80092,0.190972 -10.24998,0.623728 -13.70117,1.05664 -3.45119,0.432912 -4.90226,0.866103 -7.44922,1.859375 -2.54695,0.993273 -6.1902,2.54779 -9.41211,4.152344 -3.22191,1.604554 -6.0235,3.259134 -8.54492,4.736328 -2.52141,1.477194 -4.76208,2.776412 -7.84375,4.355469 -0.0215,0.01099 -0.0507,0.02414 -0.0723,0.03516 0.15317,0.490639 0.27602,0.817528 0.42578,1.300782 1.35068,4.358232 2.52118,8.267573 3.71875,12.796874 1.19758,4.529294 2.4222,9.679554 3.51172,14.785154 1.08953,5.1056 2.04292,10.16452 2.94336,15.53125 0.90044,5.36673 1.74742,11.03938 2.22461,14.90234 0.47719,3.86296 0.58654,5.91735 0.80274,7.73633 0.2162,1.81898 0.54034,3.40363 1.5039,6.6543 0.96357,3.25066 2.56531,8.16633 3.5918,11.49804 1.02649,3.33171 1.47728,5.07904 1.76562,6.06055 0.28835,0.98151 0.4133,1.1975 0.37696,-0.97266 -0.0363,-2.17015 -0.23286,-6.72651 -0.26172,-11.41406 -0.0289,-4.68754 0.11053,-9.50567 0.48633,-13.64062 0.37579,-4.13495 0.98659,-7.58608 1.86523,-10.4961 0.87864,-2.91001 2.02593,-5.27768 3.1211,-7.55078 1.09516,-2.27309 2.13891,-4.45124 2.8457,-6.38672 0.70678,-1.93547 1.07648,-3.62968 1.26758,-5.16406 0.19109,-1.53438 0.20239,-2.90988 0.28515,-6.3418 0.0828,-3.43192 0.23683,-8.91975 0.17969,-12.17968 -0.0571,-3.25994 -0.32488,-4.291896 -0.66211,-5.11328 -0.33723,-0.821385 -0.74508,-1.431717 -0.94922,-2.335938 -0.20414,-0.904221 -0.20413,-2.101981 -0.1914,-3.71289 0.0127,-1.610911 0.0391,-3.634862 -0.0625,-4.908204 -0.10161,-1.273341 -0.33171,-1.795298 -0.5293,-2.769531 -0.19759,-0.974233 -0.36342,-2.400343 -0.45899,-3.673828 -0.0956,-1.273485 -0.12107,-2.395081 -0.0957,-3.121094 0.0254,-0.726012 0.10281,-1.056015 0.37695,-0.699219 0.27415,0.356798 0.74431,1.400504 1.1836,2.476563 0.43929,1.076059 0.84668,2.18366 1.20312,3.603516 0.35645,1.419855 0.66193,3.151236 0.76367,4.660156 0.10175,1.50892 -8e-5,2.794906 -0.0254,3.552734 -0.0253,0.757829 0.0267,0.987115 0.25586,0.935547 0.22915,-0.05157 0.63599,-0.382812 1.84571,-1.509766 1.20971,-1.126952 3.22117,-3.048757 5.46875,-5.474609 2.24758,-2.425852 4.73168,-5.354345 6.72461,-7.792969 1.99292,-2.438623 3.49456,-4.388312 4.64062,-6.132812 0.34195,-0.520505 0.49431,-0.827194 0.7793,-1.304688 z m 3.98828,0.04883 c -0.59569,0.834417 -1.05622,1.51104 -1.60938,2.275391 -1.40078,1.935631 -2.4061,3.297604 -3.73046,4.978516 -1.32436,1.680912 -2.96695,3.680347 -4.50782,5.533203 -1.54086,1.852856 -2.98016,3.559546 -4.67382,5.482422 -1.69368,1.922875 -3.64155,4.061079 -4.92774,5.474609 -1.28619,1.41353 -1.9095,2.102139 -2.25976,2.509766 -0.35027,0.407627 -0.42813,0.534404 -0.37696,0.955078 0.0512,0.420674 0.22991,1.133381 0.4336,2.228515 0.20369,1.095135 0.43337,2.572565 0.53515,4.406246 0.10179,1.83369 0.0752,4.02397 0.0625,5.75586 -0.0127,1.73189 -0.0115,3.00686 -0.0625,4.75781 -0.051,1.75096 -0.15221,3.97922 -0.20312,5.80665 -0.0509,1.8274 -0.0513,3.2523 -0.0449,4.08007 0.006,0.82777 0.018,1.05665 0.34961,1.30469 0.33167,0.24804 0.98274,0.51604 1.64454,0.49024 0.6618,-0.0258 1.33644,-0.34333 1.96679,-0.64258 0.63035,-0.29926 1.2145,-0.58075 2.22461,-1.30664 1.01012,-0.7259 2.44547,-1.89663 4.76563,-4.03125 2.32015,-2.13463 5.52524,-5.23279 8.22656,-8.24024 2.70132,-3.00745 4.8998,-5.92422 6.55664,-8.19336 1.65684,-2.269136 2.77253,-3.89064 3.43945,-4.701167 0.66692,-0.810528 0.88414,-0.809117 1.00977,-0.646485 0.12562,0.162632 0.16086,0.485837 -0.4336,1.746094 -0.59444,1.260257 -1.81955,3.456678 -3.5664,6.085938 -1.74686,2.62925 -4.01501,5.69132 -6.57227,8.71679 -2.55725,3.02548 -5.40249,6.01577 -7.4375,8.05079 -2.035,2.03501 -3.2594,3.11391 -4.50195,4.06835 -1.24255,0.95446 -2.50374,1.78369 -3.58398,2.25196 -1.08025,0.46827 -1.98031,0.57644 -2.8086,0.55859 -0.82828,-0.0179 -1.58587,-0.16243 -2.05469,-0.14453 -0.46882,0.0179 -0.6484,0.19915 -0.97265,0.68555 -0.32426,0.4864 -0.79284,1.2779 -1.36914,2.39453 -0.57631,1.11663 -1.26031,2.55833 -1.89063,4.19726 -0.63032,1.63894 -1.20562,3.47529 -1.67383,5.56446 -0.4682,2.08916 -0.82907,4.42968 -1.11718,7.36523 -0.28812,2.93556 -0.50438,6.46478 -0.64844,10.13867 -0.14406,3.6739 -0.2166,7.49322 -0.30664,12.42774 -0.0901,4.93451 -0.19754,10.98426 0.2168,16.20703 0.41434,5.22277 1.35088,9.61763 2.52148,14.98437 1.1706,5.36675 2.57501,11.70624 3.9707,18.67579 1.39569,6.96955 2.78189,14.56857 3.73633,21.08789 0.95444,6.51932 1.47795,11.95757 1.74805,15.19922 0.27009,3.24164 0.28757,4.28674 0.41406,4.95312 0.12649,0.66638 0.35952,0.9535 1.23242,-0.27148 0.8729,-1.22499 2.38701,-3.96242 4.33203,-6.91602 1.94503,-2.9536 4.32242,-6.12283 6.84375,-9.14844 2.52133,-3.02561 5.18614,-5.90605 7.20313,-8.2832 2.01699,-2.37715 3.38602,-4.24984 4.20508,-6.06836 0.81906,-1.81852 1.08775,-3.58325 1.10156,-8.86523 0.0138,-5.28198 -0.22812,-14.08261 -0.18359,-21.66602 0.0445,-7.58341 0.37478,-13.94935 0.76953,-19.45703 0.39475,-5.50768 0.85379,-10.15587 1.41406,-13.90625 0.56027,-3.75038 1.22228,-6.60304 1.98633,-9.10547 0.76404,-2.50243 1.63124,-4.65467 2.77734,-7.2207 1.1461,-2.56603 2.57089,-5.54491 4.13086,-8.55664 1.55998,-3.01174 3.25355,-6.05593 4.48242,-8.71094 1.22887,-2.65501 1.99399,-4.92212 2.68164,-6.90234 0.68766,-1.98024 1.29907,-3.67352 2.00586,-6.8379 0.7068,-3.16437 1.50773,-7.79981 2.16992,-11.60742 0.6622,-3.80761 1.18499,-6.786114 1.50977,-9.835933 0.32478,-3.049819 0.45125,-6.169929 0.59766,-8.373047 0.14641,-2.203117 0.31355,-3.490555 0.49218,-4.166016 0.17864,-0.675459 0.36904,-0.737563 0.51563,-0.705078 0.14659,0.03249 0.24903,0.158983 0.33789,0.369141 0.0889,0.210158 0.16547,0.503932 0.22266,0.994141 0.0572,0.490208 0.094,1.177105 0.16406,2.335937 0.07,1.158833 0.17295,2.789817 0.16015,4.789063 -0.0128,1.999246 -0.1404,4.366859 -0.36328,6.86914 -0.22288,2.502282 -0.5417,5.138332 -0.94922,7.958982 -0.40751,2.82065 -0.90388,5.82597 -1.20312,7.78711 -0.29924,1.96114 -0.40208,2.87716 -0.47852,3.46289 -0.0764,0.58573 -0.1271,0.84054 0.56055,-0.0957 0.68766,-0.93625 2.11523,-3.06184 4.02539,-5.98438 1.91016,-2.92253 4.30406,-6.64164 6.09961,-9.66601 1.79555,-3.024377 2.99093,-5.353918 4.35352,-7.919923 1.36258,-2.566005 2.89093,-5.368507 4.0625,-7.654297 1.17156,-2.28579 1.98718,-4.055133 2.66211,-5.49414 0.67492,-1.439009 1.21049,-2.546137 1.48437,-3.513672 0.0605,-0.213674 0.0491,-0.371028 0.0879,-0.572266 -0.36099,-0.0905 -0.64349,-0.16202 -1.02344,-0.257812 -4.49524,-1.133345 -10.45528,-2.685814 -18.65625,-4.494141 -8.20096,-1.808328 -18.64251,-3.870659 -25.93945,-4.927735 -3.33967,-0.483803 -5.9776,-0.739444 -8.36328,-0.875 z m 56.27734,11.136719 c -0.17698,0.470214 -0.3515,0.94314 -0.53125,1.396485 -0.57305,1.445343 -1.08135,2.67947 -1.33593,3.46289 -0.25459,0.783421 -0.2545,1.115444 -0.15235,1.242188 0.10215,0.126744 0.30426,0.05035 1.09375,-0.28711 0.78949,-0.337459 2.16559,-0.935988 3.44531,-1.591796 1.27973,-0.65581 2.46423,-1.368281 3.9668,-2.457032 0.004,-0.003 0.009,-0.0067 0.0137,-0.0098 -2.22297,-0.634824 -4.43379,-1.235808 -6.5,-1.75586 z m 8.58203,2.345703 c -0.40511,0.258988 -0.68463,0.431778 -1.13476,0.72461 -2.89712,1.884707 -6.72882,4.50782 -8.7793,6.144531 -2.05047,1.636711 -2.31941,2.28528 -2.77148,3.361328 -0.45207,1.076048 -1.08747,2.580311 -2.3418,5.222656 -1.25433,2.642345 -3.12656,6.423339 -5.16406,10.249999 -2.0375,3.82666 -4.24043,7.69883 -6.56445,11.64648 -2.32403,3.94766 -4.76842,7.97078 -6.7168,11.27539 -1.94838,3.30462 -3.40136,5.88969 -4.83399,8.57032 -1.43263,2.68063 -2.8462,5.45709 -4.11328,8.125 -1.26708,2.6679 -2.38746,5.22761 -3.25976,7.71093 -0.8723,2.48333 -1.49675,4.88991 -1.92969,7.00391 -0.43294,2.114 -0.67453,3.93455 -0.78906,5.02344 -0.11454,1.08889 -0.10107,1.44531 -0.0371,1.73828 0.0639,0.29297 0.17745,0.52206 0.76953,0.40039 0.59208,-0.12167 1.66284,-0.59278 3.19726,-1.38867 1.53443,-0.79589 3.53316,-1.91544 6.74219,-3.85742 3.20903,-1.94199 7.62853,-4.70548 12.21289,-7.76172 4.58436,-3.05625 9.33403,-6.40561 13.47266,-9.64649 4.13863,-3.24087 7.66521,-6.37318 10.49219,-9.21289 2.82698,-2.8397 4.95301,-5.38723 6.74218,-7.60937 1.78918,-2.22214 3.2415,-4.11977 4.42579,-5.85156 1.18427,-1.73181 2.10127,-3.2983 2.66796,-4.25977 0.56669,-0.96147 0.78268,-1.3173 1.05078,-1.40625 0.26811,-0.0889 0.58739,0.0884 0.77149,0.49609 0.1841,0.40771 0.23491,1.04598 0.10742,1.7461 -0.12749,0.70011 -0.43275,1.46369 -1.34961,3.14453 -0.91686,1.68083 -2.44523,4.27869 -3.74414,6.39258 -1.2989,2.11389 -2.36812,3.74291 -3.50781,5.27734 -1.13969,1.53443 -2.34959,2.97307 -3.9668,4.60938 -1.6172,1.6363 -3.6416,3.47046 -4.73047,4.47656 -1.08886,1.00609 -1.24178,1.18433 -1.22851,1.27344 0.0133,0.0891 0.19096,0.0887 1.03125,-0.14063 0.84028,-0.22932 2.34273,-0.68768 5.19531,-1.27344 2.85258,-0.58575 7.05554,-1.29842 9.58984,-1.62304 2.5343,-0.32463 3.39971,-0.25998 3.97266,-0.043 0.57295,0.217 0.85326,0.58626 1.03125,0.94922 0.17799,0.36295 0.2537,0.71946 0.20898,0.98632 -0.0447,0.26687 -0.20967,0.44473 -0.18359,0.57227 0.0261,0.12754 0.24328,0.20343 0.8418,0.41992 0.59851,0.21649 1.57895,0.5736 4.01758,1.70703 2.43863,1.13344 6.33502,3.04271 9.65234,4.71094 2.0692,1.04057 3.45793,1.79639 5.04687,2.63477 0.33549,-0.8116 0.70596,-1.60572 1.05664,-2.48243 1.04423,-2.61054 2.22929,-5.65281 3.24805,-8.36523 1.01876,-2.71242 1.87185,-5.09485 2.57227,-7.62891 0.70042,-2.53405 1.24734,-5.21935 1.79492,-7.88086 0.54758,-2.6615 1.09476,-5.29869 1.40039,-6.76953 0.30563,-1.47083 0.36987,-1.77597 0.54883,-1.86523 0.17896,-0.0893 0.47149,0.039 0.6875,0.42773 0.21601,0.38872 0.35682,1.0366 0.29297,2.36719 -0.0639,1.33059 -0.33132,3.34325 -0.56055,4.94141 -0.22923,1.59815 -0.41958,2.78139 -0.69336,4.64062 -0.15501,1.05268 -0.42568,2.48901 -0.64648,3.81836 0.16424,0.3092 0.2898,0.50333 0.48828,0.89453 0.87866,1.73188 2.12476,4.22863 4.11133,8.16992 1.98657,3.9413 4.71187,9.32618 6.78125,13.29297 2.06938,3.96679 3.48415,6.51475 4.83398,9.02344 0.85232,1.58405 1.68938,3.10199 2.53906,4.54492 0.55262,-0.37603 1.34938,-0.92657 1.74414,-1.19726 1.11424,-0.76406 1.4851,-1.04501 1.91211,-1.19141 0.42702,-0.1464 0.91035,-0.15842 1.29883,-0.0625 0.38849,0.0959 0.68134,0.29926 0.81445,0.61133 0.13312,0.31206 0.10772,0.73181 -0.19921,1.10547 -0.30695,0.37365 -0.89518,0.70322 -2.48633,1.83984 -0.37857,0.27043 -1.15869,0.86453 -1.63867,1.2168 0.0224,0.032 0.0419,0.0737 0.0644,0.10547 1.41371,1.99284 2.95516,3.50787 4.83984,5.39257 1.88469,1.8847 4.11313,4.13733 6.39258,6.48047 2.27945,2.34314 4.60971,4.77571 5.95313,6.24024 1.3434,1.46452 1.69972,1.96159 2.10742,1.84765 0.4077,-0.11394 0.86741,-0.837 1.60156,-2.85546 0.73415,-2.01848 1.74273,-5.33198 2.53516,-8.51954 0.79243,-3.18755 1.36809,-6.24966 1.81836,-9.20312 0.45024,-2.95347 0.77548,-5.79848 1.15429,-7.18555 0.37881,-1.38706 0.81139,-1.31599 1.11719,-1.02734 0.3058,0.28865 0.48439,0.79286 0.57422,2.10742 0.0898,1.31456 0.0899,3.43919 -0.23438,6.55469 -0.32422,3.11549 -0.97123,7.22202 -1.76367,10.67968 -0.79244,3.45767 -1.72885,6.26663 -2.44922,8.42774 -0.72037,2.16111 -1.22513,3.67441 -1.45898,4.49414 -0.23385,0.81973 -0.19809,0.94638 0.88281,1.92773 1.08091,0.98136 3.20694,2.81797 5.21484,5.03321 1.34504,1.48392 2.62623,3.14967 3.89063,4.8457 0.0768,-0.048 0.18193,-0.10459 0.25781,-0.15234 1.47715,-0.9296 2.77557,-1.82251 3.99805,-2.70118 1.22248,-0.87865 2.36984,-1.74367 2.99414,-2.0996 0.6243,-0.35594 0.72502,-0.20347 0.94141,0.21679 0.10741,0.20862 0.24487,0.48337 0.34179,0.77539 -0.39176,-1.55482 -0.70183,-3.02135 -1.04883,-4.29687 -1.22262,-4.49432 -1.96584,-6.37991 -2.76171,-8.27735 -0.79588,-1.89743 -1.64336,-3.80718 -1.98438,-4.92187 -0.34102,-1.11469 -0.17624,-1.43217 0.0215,-1.64258 0.1977,-0.21041 0.4273,-0.31318 0.68554,-0.29687 0.25824,0.0163 0.54548,0.15103 1.27735,1.66992 0.73187,1.51889 1.90896,4.42087 2.42773,5.38867 0.51877,0.9678 0.37916,0.002 -0.1875,-3.39844 -0.56666,-3.40006 -1.5602,-9.23384 -2.4707,-14.33398 -0.9105,-5.10015 -1.73712,-9.46729 -2.4375,-12.96289 -0.70038,-3.49561 -1.27446,-6.11856 -2.15625,-9.33399 -0.8818,-3.21542 -2.07235,-7.02356 -2.83008,-9.51953 -0.75773,-2.49597 -1.08213,-3.67952 -1.54688,-5.08984 -0.46474,-1.41033 -1.06937,-3.04689 -1.77929,-4.8711 -0.70993,-1.8242 -1.52502,-3.83523 -2.14258,-5.25195 -0.61756,-1.41672 -1.03899,-2.23948 -1.33203,-2.95898 -0.29305,-0.71951 -0.45806,-1.33682 -0.45508,-1.74805 0.003,-0.41123 0.17554,-0.61391 0.36719,-0.6582 0.19165,-0.0443 0.40217,0.0704 0.73632,0.37304 0.33418,0.30264 0.7912,0.79279 1.40235,1.62696 0.61114,0.83416 1.37514,2.01054 2.07226,3.26172 0.69713,1.25118 1.32754,2.57576 1.875,4.0625 0.54747,1.48673 1.01382,3.13671 1.36719,4.41015 0.35337,1.27345 0.59473,2.1699 0.74414,2.58008 0.14942,0.41018 0.20719,0.33382 0.32813,-0.01 0.12093,-0.34358 0.3042,-0.9546 0.54297,-1.74414 0.23877,-0.78953 0.53224,-1.75627 0.74414,-2.98632 0.2119,-1.23006 0.34345,-2.72268 0.46289,-4.3379 0.11943,-1.61521 0.22574,-3.35373 0.21679,-5.28515 -0.009,-1.93143 -0.13453,-4.05632 -0.26953,-5.51953 -0.13499,-1.46321 -0.27802,-2.26447 -0.22851,-2.75586 0.0495,-0.49139 0.29108,-0.67065 0.58398,-0.46289 0.2929,0.20775 0.63537,0.80044 0.94141,1.46679 0.30603,0.66635 0.57701,1.40534 0.79297,2.44532 0.21595,1.03998 0.37833,2.38101 0.48632,4.68164 0.108,2.30062 0.16218,5.56108 0,7.99218 -0.16217,2.43112 -0.54022,4.03313 -1.0625,5.83399 -0.52226,1.80086 -1.18912,3.80061 -1.53124,4.86328 -0.34214,1.06267 -0.3611,1.18929 0.10742,2.57617 0.46851,1.38688 1.42454,4.03391 2.17187,6.33008 0.74733,2.29617 1.28631,4.24118 1.85352,7.14063 0.56721,2.89944 1.16269,6.75303 1.91015,10.25585 0.74747,3.50283 1.64617,6.65459 2.35743,10.72461 0.71125,4.07003 1.2342,9.05849 1.81054,13.26368 0.57634,4.20518 1.20607,7.6263 1.93555,10.50781 0.72948,2.88151 1.55778,5.22255 2.44922,7.8789 0.89143,2.65636 1.84668,5.62705 2.38672,7.03126 0.54003,1.4042 0.66641,1.24338 0.60351,0.3164 -0.0629,-0.92697 -0.31556,-2.62001 -0.51367,-3.9707 -0.19811,-1.3507 -0.34186,-2.36016 -0.45898,-4.08008 -0.11712,-1.71992 -0.20769,-4.14953 -0.26172,-6.26562 -0.054,-2.1161 -0.0715,-3.9171 0.14453,-5.61915 0.21601,-1.70204 0.66629,-3.30637 1.0625,-4.82812 0.39621,-1.52175 0.73891,-2.96179 1.16211,-4.26758 0.4232,-1.30579 0.92631,-2.47595 1.55664,-3.76367 0.63033,-1.28772 1.38767,-2.69325 2,-3.75586 0.61233,-1.06261 1.07929,-1.78224 1.60156,-3.54688 0.52227,-1.76462 1.09967,-4.573 1.37891,-7.07617 0.27923,-2.50316 0.26172,-4.7011 0.26172,-6.98828 -10e-6,-2.28718 0.0164,-4.66344 0.0254,-6.85156 0.009,-2.18812 0.0104,-4.18766 -0.14258,-6.06055 -0.15298,-1.87289 -0.46005,-3.61993 -0.86524,-5.70898 -0.40518,-2.08906 -0.9095,-4.5208 -1.13476,-6.33985 -0.22526,-1.81904 -0.17084,-3.02599 -0.0352,-3.5664 0.13568,-0.54042 0.35111,-0.41307 0.54883,-0.0977 0.19772,0.31542 0.37924,0.81841 0.61328,1.67383 0.23404,0.85542 0.52238,2.06218 0.69336,3.09766 0.17098,1.03547 0.2247,1.89969 0.3418,3.07031 0.11709,1.17062 0.29568,2.64765 0.42187,3.49414 0.1262,0.84649 0.19981,1.06307 0.71289,0.73828 0.51309,-0.32479 1.4674,-1.18863 2.42188,-2.08008 0.95447,-0.89144 1.9089,-1.80972 2.81836,-2.70117 0.90945,-0.89145 1.77409,-1.75708 2.89062,-2.97266 1.11654,-1.21557 2.48363,-2.7822 3.69922,-4.29492 0.86677,-1.07863 1.48602,-1.92341 2.11914,-2.76758 -0.38394,-0.3781 -0.77642,-0.77623 -1.22265,-1.09765 -0.63666,-0.45859 -1.17081,-0.73943 -1.82032,-0.91797 -0.6495,-0.17858 -1.41287,-0.25478 -2.08789,-0.26758 -0.67502,-0.0128 -1.26165,0.0389 -1.74609,0.35742 -0.48444,0.31852 -0.86667,0.90338 -1.51563,1.25977 -0.64895,0.35639 -1.56495,0.48306 -2.36718,0.57226 -0.80223,0.0892 -1.49084,0.14142 -1.97461,0.10352 -0.48377,-0.0379 -0.76248,-0.16538 -1.11914,-0.44531 -0.35667,-0.27992 -0.78963,-0.71317 -1.54102,-1.5918 -0.75139,-0.87863 -1.82153,-2.2034 -2.66211,-3.40039 -0.84057,-1.19699 -1.45152,-2.26603 -2.03711,-3.04297 -0.58558,-0.77693 -1.14714,-1.26036 -2.53515,-2.33008 -1.38802,-1.06973 -3.60324,-2.72582 -5.9336,-4.20312 -2.33037,-1.4773 -4.77452,-2.77529 -7.91992,-4.39258 -3.14539,-1.61729 -6.9917,-3.55432 -10.64648,-5.24805 -3.65479,-1.69373 -7.11826,-3.14587 -9.62696,-4.33007 -2.50871,-1.18422 -4.06328,-2.09962 -6.67383,-3.691409 -2.61056,-1.591785 -6.2775,-3.859293 -10.36523,-6.087891 -4.08773,-2.228597 -8.59471,-4.419405 -12.40234,-5.794922 -3.80763,-1.375517 -6.91578,-1.934056 -9.80664,-2.048828 -2.89086,-0.114771 -5.5639,0.216296 -7.57618,0.712891 -2.01228,0.496595 -3.36275,1.158801 -4.54687,1.591797 -1.18413,0.432997 -2.2018,0.635488 -3.32227,0.673828 -1.12047,0.03834 -2.34387,-0.08781 -3.91015,-0.482422 -1.56628,-0.394614 -3.47618,-1.057102 -7.74219,-2.496094 -4.26602,-1.438992 -10.88846,-3.65461 -15.71484,-5.11914 -0.17279,-0.05243 -0.28284,-0.0764 -0.45118,-0.126954 z M -618.85558,84.3125 c -2.52079,1.266149 -5.24564,2.647818 -8.09375,4.34375 -3.93506,2.343166 -7.88174,5.169964 -11.3711,8.302734 -3.48937,3.132776 -6.52027,6.570416 -9.13086,9.703126 -2.61059,3.13271 -4.8001,5.95949 -6.5957,8.62109 -0.69107,1.02437 -1.09297,1.76938 -1.67578,2.72071 0.55014,0.82645 1.13035,1.70665 1.53711,2.27343 1.19716,1.66815 1.73015,2.20299 4.06054,4.48243 2.33039,2.27944 6.45679,6.30289 10.67188,10.53711 4.21508,4.23421 8.51883,8.67845 12.01758,12.5625 3.49874,3.88403 6.19357,7.20748 8.66406,10.23828 2.47049,3.03079 4.71759,5.76914 6.69141,8.27148 1.97381,2.50234 3.6743,4.76923 5.19922,6.92774 1.52491,2.1585 2.87318,4.20875 4.00976,5.87695 1.13658,1.6682 2.06045,2.95424 2.58594,3.6289 0.52549,0.67467 0.65254,0.7385 0.66797,0.5 0.0154,-0.23849 -0.0798,-0.78155 -0.32813,-2.03906 -0.2483,-1.25751 -0.65006,-3.23085 -1.15625,-5.65039 -0.50619,-2.41954 -1.11644,-5.28337 -1.68945,-7.69336 -0.57301,-2.40999 -1.10881,-4.36572 -1.60547,-6.26953 -0.49666,-1.9038 -0.95502,-3.75637 -1.35937,-5.57422 -0.40437,-1.81785 -0.75323,-3.60022 -1.12891,-5.625 -0.37568,-2.02477 -0.778,-4.29108 -1.05469,-5.53906 -0.27669,-1.24798 -0.42983,-1.47883 -0.6875,-1.70508 -0.25767,-0.22625 -0.6199,-0.44766 -0.96094,-1.0332 -0.34103,-0.58554 -0.66002,-1.53428 -0.91796,-2.45117 -0.25795,-0.9169 -0.45458,-1.80269 -0.69336,-2.92969 -0.23879,-1.127 -0.51874,-2.49658 -0.63672,-3.30859 -0.11799,-0.81202 -0.0739,-1.06477 0.0254,-1.17969 0.0993,-0.11492 0.25322,-0.0907 0.49804,0.33008 0.24482,0.42073 0.58055,1.23612 1.06446,2.41406 0.4839,1.17793 1.11462,2.71789 1.58593,3.7207 0.47132,1.00281 0.78319,1.46825 0.95313,1.67969 0.16994,0.21144 0.19983,0.17088 -0.0918,-2.1543 -0.29162,-2.32517 -0.90522,-6.93479 -1.72461,-12.14844 -0.81939,-5.21364 -1.84585,-11.03187 -3.1875,-17.37109 -1.34164,-6.33922 -2.99831,-13.199675 -4.29492,-18.035156 -0.81402,-3.035752 -1.28443,-4.541211 -1.84765,-6.427734 z m -39.64649,38.20117 c -1.10672,1.81342 -1.99975,3.12289 -2.67773,4.62695 -0.70041,1.55384 -1.18281,3.33504 -1.75586,5.23243 -0.30183,0.99934 -0.64185,2.059 -0.97266,3.09961 1.13628,0.26029 2.23556,0.50142 3.46289,0.81836 1.94306,0.50174 3.97324,1.08946 6.16992,1.69921 2.19668,0.60976 4.55906,1.23988 6.86719,2.03907 2.30813,0.79918 4.5629,1.76766 6.25977,2.52539 1.69686,0.75773 2.83632,1.30462 3.45703,1.57812 0.62071,0.27351 0.72171,0.27411 0.70898,0.21094 -0.0127,-0.0632 -0.13923,-0.19102 -0.91601,-0.95508 -0.77679,-0.76406 -2.20365,-2.16432 -4.25391,-4.3164 -2.05026,-2.15209 -4.72414,-5.05568 -7.42383,-7.90821 -2.69968,-2.85253 -5.42539,-5.65342 -7.48828,-7.47461 -0.56056,-0.49488 -0.96726,-0.79865 -1.4375,-1.17578 z m 302.34766,11.53906 c -0.65543,0.87877 -1.33492,1.77433 -1.98242,2.67188 -0.9095,1.2607 -1.64769,2.39625 -2.70118,3.75586 -1.05349,1.35961 -2.42286,2.94286 -3.72851,4.39258 -1.30565,1.44972 -2.54838,2.76441 -3.4668,3.67383 -0.91842,0.90941 -1.51188,1.41366 -1.79101,1.85546 -0.27914,0.44181 -0.24315,0.82135 -0.16211,1.75782 0.081,0.93646 0.20674,2.43078 0.34179,4.38476 0.13506,1.95399 0.27968,4.36764 0.30664,6.79883 0.027,2.43119 -0.0638,4.88033 -0.17187,6.86133 -0.10808,1.98099 -0.23326,3.49241 -0.21485,4.375 0.0184,0.88258 0.18085,1.13453 0.45118,1.28711 0.27032,0.15257 0.6486,0.20708 1.22461,0.0898 0.576,-0.11724 1.35038,-0.40464 2.30468,-0.96289 0.95431,-0.55825 2.08836,-1.38615 3.29493,-2.34961 1.20657,-0.96346 2.48521,-2.06276 3.83593,-3.15234 1.35073,-1.08958 2.77277,-2.1699 3.73633,-2.86328 0.66126,-0.47585 0.9568,-0.60102 1.31641,-0.78516 0.003,-0.11788 0.0154,-0.28273 0.0176,-0.39844 0.0382,-2.01202 0.0132,-3.69216 -0.20313,-5.37304 -0.21635,-1.68087 -0.62494,-3.3618 -1.07031,-4.45704 -0.44536,-1.09525 -0.92969,-1.60607 -1.54102,-2.38281 -0.61134,-0.77674 -1.3487,-1.82104 -1.89648,-2.86523 -0.54778,-1.0442 -0.90583,-2.08828 -0.95703,-3.15821 -0.0512,-1.06992 0.20517,-2.16405 0.49804,-3.06836 0.29288,-0.90429 0.62305,-1.61797 0.94141,-2.31835 0.31836,-0.70039 0.62318,-1.38738 0.89063,-2.16407 0.26743,-0.77668 0.49857,-1.64351 0.61328,-2.66211 0.1147,-1.01859 0.11328,-2.18913 0.11328,-2.92773 0,-0.007 0,-0.009 0,-0.0156 z m -308.38086,3.41602 c -0.0835,0.2657 -0.16608,0.52437 -0.24805,0.78906 -0.61125,1.97387 -1.1707,3.90824 -1.87109,6.74805 -0.70038,2.83981 -1.54039,6.58375 -2.69922,11.75391 -1.15883,5.17017 -2.63779,11.76634 -4.19141,17.58593 -1.02371,3.83466 -2.08168,7.17425 -3.14258,10.25782 1.22194,0.56954 2.59759,1.25837 4.06055,2.16015 2.20608,1.35984 4.3666,3.03487 6.55469,4.88086 2.18809,1.84599 4.40395,3.86311 6.33984,5.98828 1.93589,2.12518 3.59264,4.35817 4.98828,6.44727 1.39565,2.0891 2.53052,4.03319 3.39063,5.93554 0.86011,1.90236 1.44561,3.76229 1.89453,5.33204 0.44892,1.56975 0.76054,2.85013 1.06641,3.71289 0.30587,0.86275 0.60423,1.30737 1.97656,2.25586 1.37233,0.94848 3.81792,2.4009 5.58789,3.76367 1.58935,1.22371 2.80174,2.46689 5.15625,4.30273 0.22072,-0.13323 0.58111,-0.33226 0.78906,-0.45898 2.44498,-1.48992 3.97351,-2.50772 5.92188,-3.80664 1.94836,-1.29891 4.31782,-2.87888 6.38086,-4.15235 0.24048,-0.14844 0.43392,-0.24871 0.66601,-0.38867 -0.002,-0.005 -0.002,-0.0108 -0.004,-0.0156 -1.06947,-3.13267 -2.47015,-5.60372 -4.26563,-8.39258 -1.79548,-2.78886 -3.9864,-5.89538 -6.50781,-9.43555 -2.52141,-3.54017 -5.3727,-7.51377 -8.36524,-11.2832 -2.99253,-3.76943 -6.12674,-7.33611 -9.06836,-10.44336 -2.94161,-3.10725 -5.69054,-5.75597 -7.53711,-7.64063 -1.84655,-1.88465 -2.79041,-3.00477 -3.01953,-3.52734 -0.22911,-0.52257 0.2551,-0.44605 1.78321,0.63672 1.5281,1.08277 4.10123,3.1723 6.11328,4.7832 2.01205,1.6109 3.46374,2.7439 5.75586,5.02344 2.29211,2.27954 5.4237,5.70473 7.53125,8.03516 2.10755,2.33042 3.18977,3.56557 4.38867,5.00781 1.1989,1.44223 2.51598,3.09195 3.69141,4.70898 1.17542,1.61704 2.21008,3.20161 2.83593,4.14258 0.62586,0.94098 0.84138,1.23665 0.97071,1.25586 0.12932,0.0192 0.1733,-0.23834 0.27148,-1.2207 0.0982,-0.98236 0.25154,-2.68777 0.37891,-5.15821 0.12737,-2.47043 0.22779,-5.70521 0.11328,-8.54492 -0.11452,-2.83971 -0.44505,-5.28607 -0.38086,-6.44531 0.0642,-1.15924 0.52207,-1.03118 0.81445,-0.54688 0.29239,0.48431 0.42017,1.32478 0.66211,3.05665 0.24195,1.73186 0.59971,4.35531 0.89258,6.95312 0.29287,2.59781 0.52131,5.17035 0.59766,7.9082 0.0763,2.73785 -8.3e-4,5.6403 0.12695,7.3086 0.12778,1.66829 0.45939,2.1014 0.96875,2.78906 0.50936,0.68766 1.19667,1.63105 2.0625,3.14648 0.86583,1.51543 1.91123,3.60382 2.82812,5.41211 0.0683,0.13472 0.12834,0.29681 0.19532,0.42969 0.23,-0.10262 0.50708,-0.25831 0.7207,-0.3418 1.40105,-0.54755 2.44593,-0.67546 3.7832,-0.26757 1.33727,0.40789 2.96693,1.34931 3.75586,2.35546 0.78893,1.00615 0.73756,2.07698 1.52735,4.63672 0.78979,2.55974 2.42042,6.60934 3.27343,9.18164 0.85301,2.57229 0.92837,3.66611 1.04297,5.55079 0.1146,1.88468 0.26743,4.55845 0.61133,7.44921 0.34389,2.89076 0.8798,5.99907 1.42773,7.89649 0.54793,1.89742 1.10693,2.584 2.21485,3.85742 0.6468,0.74342 1.5468,1.76571 2.39453,2.72852 1.00146,1.02319 2.47168,2.50698 3.10742,3.14257 1.59193,1.59158 1.82159,1.69419 1.91016,1.3379 0.0886,-0.35631 0.0367,-1.17251 -0.1543,-4.47071 -0.19102,-3.29819 -0.5214,-9.07818 -0.86523,-15.10156 -0.34383,-6.02339 -0.70094,-12.29007 -1.0625,-17.85938 -0.36157,-5.5693 -0.72826,-10.44171 -1.18164,-14.69726 -0.45339,-4.25555 -0.99213,-7.89418 -1.36133,-10.47852 -0.3692,-2.58433 -0.56894,-4.11487 -1.12696,-5.68164 -0.55801,-1.56676 -1.47542,-3.16896 -3.56445,-6.55469 -2.08903,-3.38572 -5.34904,-8.55486 -9.45508,-14.38085 -4.10603,-5.826 -9.05902,-12.30827 -12.87695,-17.13477 -3.81793,-4.8265 -6.49945,-7.99634 -8.89453,-10.01367 -2.39508,-2.01734 -4.50264,-2.88079 -7.33008,-3.94336 -2.82744,-1.06258 -6.37453,-2.32449 -9.53516,-3.41406 -3.16062,-1.08958 -5.93445,-2.00789 -7.97851,-2.65625 -2.04406,-0.64837 -3.35828,-1.0264 -5.24024,-1.63868 -0.51288,-0.16686 -1.03043,-0.36153 -1.59765,-0.55273 z m 213.18164,0.76758 c -0.45491,1.83898 -0.97431,3.6192 -1.5625,5.4707 -0.73223,2.30492 -1.53343,4.75001 -2.41211,7.29688 -0.4303,1.24722 -0.88229,2.41942 -1.33203,3.66015 1.74804,0.98213 3.06685,1.77498 5.12695,3.14649 2.26671,1.50905 5.46393,3.70031 8.31641,5.86523 2.85248,2.16492 5.36141,4.30288 6.92773,5.67188 1.50853,1.31848 2.08108,1.86359 2.3418,2.04296 0.0549,-0.038 0.0881,-0.0619 0.14258,-0.0996 -0.0675,-0.15798 -0.18868,-0.38899 -0.39063,-0.75196 -0.43928,-0.78954 -1.17829,-2.0757 -2.5918,-4.45703 -1.41349,-2.38133 -3.50047,-5.85706 -5.55078,-9.63281 -2.0503,-3.77575 -4.06341,-7.85158 -5.66796,-11.18164 -1.50321,-3.11972 -2.57553,-5.42336 -3.34766,-7.03125 z m -32.875,7.14453 c -0.83429,-0.0958 -1.64847,0.02 -3.70508,0.35742 -2.05661,0.33745 -5.35459,0.89695 -8.18164,1.38086 -2.82705,0.48391 -5.18251,0.89127 -6.8125,1.15234 -1.62999,0.26108 -2.5356,0.37627 -3.23633,0.60547 -0.70072,0.2292 -1.19627,0.57332 -3.90234,2.61719 -2.70608,2.04387 -7.62108,5.78801 -11.93164,8.83789 -4.31056,3.04988 -8.01611,5.40547 -11.04688,7.25195 -3.03077,1.84649 -5.38622,3.18328 -7.30273,4.24024 -1.91651,1.05695 -3.39482,1.83392 -4.17188,2.27344 -0.77705,0.43951 -0.85289,0.54018 -0.91015,1.1582 -0.0573,0.61801 -0.0956,1.75178 -0.1211,4.34961 -0.0255,2.59782 -0.0378,6.66004 0.0195,11.14258 0.0573,4.48253 0.18419,9.38596 0.29883,12.48047 0.11464,3.0945 0.21677,4.37937 0.40821,5.18164 0.19144,0.80227 0.47135,1.12041 1.22265,1.20898 0.7513,0.0886 1.9729,-0.0501 3.80664,-0.2793 1.83374,-0.22922 4.27925,-0.54814 6.50781,-0.77734 2.22858,-0.2292 4.24143,-0.36954 5.50196,-0.53516 1.26053,-0.16562 1.7688,-0.35689 2.68554,-0.85351 0.91675,-0.49663 2.24115,-1.29741 3.67383,-2.07422 1.43269,-0.77681 2.97476,-1.52992 4.51563,-2.28125 1.54086,-0.75133 3.08178,-1.5023 4.72461,-2.18359 1.64282,-0.6813 3.38633,-1.29203 5.10547,-1.91602 1.71913,-0.62399 3.41318,-1.26076 4.9414,-1.73828 1.52823,-0.47753 2.88995,-0.79584 4.58985,-1.44531 1.69989,-0.64947 3.73711,-1.62932 5.73632,-2.77539 1.99922,-1.14608 3.96138,-2.45818 5.91602,-4.01172 1.95464,-1.55354 3.90234,-3.34899 5.8125,-5.14453 1.91016,-1.79555 3.78292,-3.59136 5.33008,-5.36133 0.40082,-0.45855 0.73886,-0.92314 1.10351,-1.38281 -0.58746,-0.45778 -1.1021,-0.90415 -2.12109,-1.57032 -1.63632,-1.06976 -4.61581,-2.96829 -7.13086,-4.54101 -2.51505,-1.57273 -4.56621,-2.81905 -6.0625,-3.69141 -1.49629,-0.87235 -2.43937,-1.37015 -2.92383,-1.75195 -0.48446,-0.38181 -0.50906,-0.64863 -0.20312,-0.85938 0.30593,-0.21075 0.94237,-0.36368 2.29883,-0.0195 1.35645,0.34415 3.43138,1.18379 7.18164,3.31055 3.12368,1.77143 7.25354,4.37912 10.76171,6.72461 0.39449,-0.56403 0.78814,-1.11286 1.18946,-1.71289 1.32437,-1.98018 2.75091,-4.1971 4.20898,-6.82032 1.45808,-2.62321 2.9475,-5.65366 4.14453,-8.25781 0.29574,-0.64337 0.51084,-1.22192 0.77735,-1.82617 -0.66391,-0.39274 -1.18119,-0.74893 -1.94141,-1.16602 -3.86485,-2.1204 -9.11055,-4.59009 -12.37695,-6.08007 -3.2664,-1.48999 -4.55335,-2.00068 -5.62305,-2.40821 -1.06969,-0.40752 -1.92352,-0.71281 -2.75781,-0.80859 z m 26.32617,12.69922 c -0.0475,0.12349 -0.0974,0.27697 -0.14453,0.39844 -0.88505,2.27943 -1.70044,4.1899 -2.73828,6.29101 -1.03785,2.10111 -2.29856,4.39342 -3.50196,6.36719 -1.20338,1.97377 -2.35015,3.62949 -3.44531,5.18945 -0.15473,0.22041 -0.31936,0.42937 -0.47265,0.64649 2.67865,1.94596 4.54312,3.45729 5.6582,4.21093 1.3371,0.9037 1.94677,0.91662 3.69141,1.03125 1.74463,0.11464 4.62406,0.33219 7.13281,0.72071 0.3502,0.0542 0.65308,0.13105 0.99023,0.1914 1.55821,-1.03519 3.19559,-2.20186 4.8086,-3.32422 1.67459,-1.16521 3.3181,-2.27336 5.1582,-3.57226 1.2003,-0.84728 2.51007,-1.78966 3.79883,-2.71289 -0.61237,-0.57928 -1.13305,-1.08501 -1.64063,-1.4707 -0.66211,-0.50313 -1.52677,-1.06174 -2.97851,-2.125 -1.45175,-1.06327 -3.49059,-2.62959 -5.76368,-4.31055 -2.27308,-1.68097 -4.78139,-3.47694 -7.27734,-5.25977 -1.04583,-0.74702 -2.13147,-1.50224 -3.27539,-2.27148 z m 104.22656,10.24804 c -0.0868,0.0739 -0.13213,0.13546 -0.21875,0.20899 -0.7744,0.65734 -1.51267,1.28803 -2.65625,2.26953 -1.14358,0.9815 -2.69256,2.3144 -3.9082,3.37695 -1.21564,1.06256 -2.09968,1.85388 -2.95508,2.57422 -0.8554,0.72035 -1.68229,1.36992 -2.44726,1.70313 -0.76497,0.33321 -1.46788,0.35067 -2.15235,0.43164 -0.68446,0.081 -1.35095,0.22552 -1.76562,0.42383 -0.41467,0.1983 -0.57562,0.45066 -1.00782,1.04492 -0.43218,0.59425 -1.13614,1.53078 -1.89257,2.89062 -0.75643,1.35984 -1.56685,3.14137 -2.24219,4.86133 -0.67534,1.71996 -1.21552,3.37823 -1.47656,5.15234 -0.26104,1.77412 -0.24294,3.66346 -0.25196,7.76954 -0.009,4.10607 -0.0442,10.42696 -0.0351,15.80273 0.004,2.17439 0.037,4.14957 0.0879,6.13672 0.16808,0.20238 0.39522,0.49188 0.54101,0.65234 1.00607,1.10727 1.43895,1.05773 1.91016,1.01953 0.47122,-0.0382 0.9806,-0.0649 1.40039,-0.23046 0.41979,-0.16554 0.75032,-0.47122 0.99219,-1.08204 0.24186,-0.61083 0.39518,-1.52741 0.80273,-2.33007 0.40756,-0.80267 1.06891,-1.48988 2.33008,-1.91016 1.26117,-0.42029 3.12074,-0.57393 4.81445,-0.67578 1.69371,-0.10186 3.22303,-0.1514 4.47071,-0.43164 1.24769,-0.28024 2.21399,-0.78953 3.13086,-1.27344 0.91688,-0.48391 1.78413,-0.94304 2.72656,-1.36328 0.94244,-0.42025 1.96132,-0.80117 2.86523,-1.33594 0.90391,-0.53477 1.69311,-1.22401 2.11328,-1.89844 0.42016,-0.67443 0.47111,-1.33671 0.26758,-2.40625 -0.20353,-1.06954 -0.66161,-2.54687 -1.50195,-4.45703 -0.84035,-1.91016 -2.06337,-4.25244 -3.08203,-5.98437 -1.01865,-1.73192 -1.8337,-2.85152 -2.4961,-4.15039 -0.66239,-1.29888 -1.17134,-2.77738 -1.24804,-4.61133 -0.0767,-1.83394 0.28004,-4.0229 0.6875,-5.74219 0.40747,-1.71928 0.86603,-2.9676 1.22265,-4.99219 0.35663,-2.0246 0.61076,-4.8261 0.78907,-7.39843 0.1041,-1.50192 0.131,-2.71959 0.18554,-4.04493 z m -81.13086,7.2168 c -0.29421,0.22137 -0.46171,0.33993 -0.75976,0.56446 -2.70139,2.03503 -5.51084,4.16111 -7.9961,5.99804 -1.00072,0.73967 -1.82348,1.29202 -2.74023,1.95117 0.49574,0.11729 0.99128,0.23184 1.49414,0.34766 2.26672,0.52208 4.66014,1.00556 7.20703,1.57227 2.5469,0.5667 5.24782,1.2154 8.01758,2.11328 2.76976,0.89787 5.60787,2.04531 7.68359,2.87304 2.07572,0.82774 3.38892,1.33593 4.14649,1.58399 0.75757,0.24806 0.96038,0.23605 0.79492,0.0137 -0.16546,-0.22238 -0.69947,-0.65603 -3.31641,-3.13281 -2.61694,-2.47678 -7.31603,-6.99661 -10.45507,-10.00196 -2.23083,-2.13581 -3.06229,-2.92122 -4.07618,-3.88281 z m -35.31445,4.05274 c -0.32233,0.43306 -0.60975,0.86334 -0.95312,1.30664 -1.20338,1.55355 -2.56549,3.19509 -3.99805,4.71679 -1.43256,1.5217 -2.93568,2.92342 -4.33008,4.17774 -1.3944,1.25432 -2.68089,2.36127 -3.89062,3.34179 -1.20974,0.98053 -2.3428,1.83351 -2.9668,2.30469 -0.624,0.47119 -0.73913,0.56156 0.0762,0.40235 0.8153,-0.15922 2.56125,-0.5662 5.6875,-1.42578 3.12625,-0.85959 7.63368,-2.17272 10.85547,-3.16602 3.22179,-0.9933 5.15607,-1.66843 7.28906,-2.4707 2.13299,-0.80228 4.46393,-1.73158 6.38672,-2.64844 0.27356,-0.13045 0.49344,-0.26411 0.75195,-0.39453 -1.35562,-0.11737 -2.63487,-0.19395 -3.71875,-0.35547 -1.45163,-0.21633 -2.99265,-0.63667 -4.11328,-1.00586 -1.12062,-0.36919 -1.82095,-0.68775 -3.50195,-1.93555 -1.03271,-0.76657 -2.30335,-1.81924 -3.57422,-2.84765 z m -207.21094,6.81054 c -0.33401,0.91659 -0.66726,1.96966 -0.99999,2.79883 -1.60454,3.9985 -3.18364,6.9523 -4.48242,8.875 -0.31631,0.46825 -0.58073,0.72044 -0.86914,1.07813 2.71572,1.24082 5.47713,2.47498 7.86132,3.64648 3.68026,1.80834 5.92124,3.03145 8.03515,4.22852 2.11393,1.19706 4.10061,2.36868 6.25586,3.91601 2.15526,1.54733 4.4795,3.47026 5.88672,4.54297 1.40723,1.07271 1.89812,1.29473 2.22657,1.36328 0.32844,0.0686 0.49584,-0.0149 0.52539,-0.54297 0.0295,-0.5281 -0.0797,-1.50115 -0.51172,-2.92383 -0.43204,-1.42266 -1.18775,-3.29609 -2.36719,-5.36718 -1.17944,-2.0711 -2.7825,-4.34 -4.16016,-6.16797 -1.37766,-1.82797 -2.53008,-3.21525 -3.76367,-4.58399 -1.23358,-1.36873 -2.54698,-2.71919 -4.0957,-4.04296 -1.54872,-1.32378 -3.33188,-2.61971 -4.9707,-3.73633 -1.63883,-1.11662 -3.13509,-2.05275 -4.17969,-2.79102 -0.17986,-0.12711 -0.23506,-0.17712 -0.39063,-0.29297 z m 227.59961,0.0899 c -0.20242,0.13819 -0.43456,0.31666 -0.63672,0.45312 -2.16106,1.45873 -4.3216,2.82701 -6.23047,3.85352 -1.90885,1.0265 -3.56707,1.71242 -6.23242,2.79297 -2.66535,1.08055 -6.33953,2.55724 -9.45508,3.67382 -3.11553,1.11659 -5.67091,1.87188 -8.89453,2.73633 -3.22361,0.86445 -7.11451,1.83821 -10.41015,2.5586 -3.29565,0.72039 -5.99759,1.18716 -8.62696,1.6914 -2.62936,0.50425 -5.18517,1.04419 -7.5625,1.72852 -2.37732,0.68432 -4.57416,1.5139 -7.50976,2.97265 -2.93561,1.45875 -6.61087,3.54652 -9.72656,5.59961 -0.86679,0.57118 -1.62209,1.1578 -2.41797,1.73438 0.068,2.00354 -0.0919,3.75167 -0.44141,5.89648 -0.36933,2.26666 -0.92935,4.99042 -1.66797,7.51172 -0.73862,2.5213 -1.65437,4.84003 -2.58398,7.01758 -0.92961,2.17755 -1.8721,4.21543 -2.4961,5.60352 -0.62399,1.38809 -0.92988,2.12547 -1.19726,3.19531 -0.26739,1.06985 -0.49597,2.47152 -0.57227,4.39453 -0.0763,1.923 -1.2e-4,4.3682 0.0508,7.2207 0.0509,2.8525 0.0764,6.11235 0.50977,8.30274 0.43338,2.19039 1.27382,3.31077 3.34961,5.48828 5.4e-4,5.7e-4 10e-4,10e-4 0.002,0.002 0.23176,-0.3947 0.14785,-0.23175 0.74805,-1.26367 1.45162,-2.49577 4.35462,-7.48723 7.15625,-11.61328 2.80162,-4.12606 5.50268,-7.38643 8.43164,-10.64649 2.92896,-3.26005 6.08626,-6.5199 9.75391,-9.55078 3.56721,-2.94788 7.62542,-5.67926 12.71875,-8.45117 -1.14009,-0.35825 -2.41323,-0.73352 -3.87891,-1.13477 -3.22367,-0.88249 -7.27537,-1.87346 -11.27344,-2.71093 -3.99806,-0.83748 -7.9426,-1.52129 -10.70703,-1.93555 -2.76443,-0.41426 -4.3481,-0.55893 -5.16797,-0.81055 -0.81987,-0.25161 -0.87474,-0.61225 -0.24414,-0.95507 0.6306,-0.34283 1.94618,-0.66582 3.57617,-0.80079 1.63,-0.13496 3.57434,-0.0826 5.9336,0.14258 2.35925,0.22518 5.13293,0.62207 7.33008,1.02735 2.19715,0.40527 3.8176,0.81889 5.19531,1.24218 1.37771,0.4233 2.51219,0.85587 3.1875,1.08985 0.6753,0.23398 0.89193,0.27052 1.0625,0.23437 0.17056,-0.0361 0.29618,-0.14473 0.26953,-0.32422 -0.0267,-0.17948 -0.20724,-0.43193 -1.01758,-1.31445 -0.81034,-0.88251 -2.24944,-2.39413 -3.74414,-3.75391 -1.4947,-1.35977 -3.04389,-2.56618 -4.71875,-3.88086 -1.67486,-1.31467 -3.47668,-2.73739 -4.65625,-3.6289 -1.17956,-0.89151 -1.73764,-1.25249 -1.87305,-1.4961 -0.13541,-0.24359 0.15219,-0.36951 0.75586,-0.20703 0.60368,0.16249 1.52379,0.61228 2.9375,1.38672 1.41372,0.77445 3.32203,1.87401 5.00586,2.97266 1.68383,1.09864 3.14165,2.19614 4.28516,3.17773 1.14351,0.9816 1.97316,1.84626 2.81055,2.80078 0.83738,0.95453 1.68218,1.99985 2.47461,2.94532 0.79241,0.94546 1.53105,1.79153 2.26953,2.27734 0.73848,0.48581 1.47831,0.61138 1.98242,0.65625 0.50411,0.0449 0.77341,0.01 0.99805,-0.125 0.22463,-0.13494 0.40403,-0.36962 0.49414,-0.69336 0.0901,-0.32374 0.0905,-0.73754 0.35156,-1.44922 0.26103,-0.71167 0.78445,-1.72151 1.26172,-2.54101 0.47726,-0.8195 0.90794,-1.44854 1.36718,-2.08789 0.45925,-0.63936 0.94604,-1.28892 1.44141,-1.82032 0.49537,-0.53139 0.99952,-0.94471 1.54883,-1.37695 0.5493,-0.43224 1.14433,-0.88264 1.4414,-1.03516 0.29708,-0.15251 0.29612,-0.008 -0.0371,0.4961 -0.33323,0.50383 -0.99875,1.36842 -1.53907,2.16992 -0.54031,0.8015 -0.95515,1.53885 -1.4414,2.48438 -0.48626,0.94551 -1.04455,2.09751 -1.38672,2.83593 -0.34218,0.73843 -0.4671,1.06322 -0.53906,1.35157 -0.072,0.28833 -0.0912,0.54005 -0.082,0.73828 0.009,0.19822 0.0446,0.34261 0.53125,0.88281 9.5e-4,0.001 0.003,0.003 0.004,0.004 3.59368,-1.74473 7.03095,-3.29849 9.0625,-4.17383 3.13235,-1.34966 2.97933,-1.14484 2.72461,-0.75 -0.25472,0.39483 -0.61101,0.97981 -1.05664,1.55273 -0.44563,0.57292 -0.98034,1.13363 -2.38086,1.85938 -1.40052,0.72574 -3.66812,1.61644 -6.43164,3.11914 -0.0591,0.0321 -0.12404,0.0728 -0.18359,0.10547 0.14425,0.12916 0.28884,0.26115 0.42382,0.37304 0.73848,0.61213 1.27981,0.89977 3.59375,0.49414 0.44841,-0.53665 0.78991,-0.98945 1.2461,-1.51953 1.80832,-2.10123 3.61627,-4.06175 5.19531,-5.9082 0.25864,-0.30244 0.56788,-0.6883 0.81836,-0.98828 -0.3258,-0.5812 -0.65406,-1.1143 -0.97656,-1.76758 -0.69346,-1.4047 -1.37787,-3.04398 -1.73828,-4.4668 -0.36042,-1.42281 -0.39574,-2.62936 -0.3418,-3.58398 0.0539,-0.95462 0.1988,-1.65688 0.33398,-2.0625 0.13519,-0.40562 0.26008,-0.51278 0.35938,-0.49414 0.0993,0.0186 0.1728,0.16256 0.22656,0.51367 0.0538,0.35111 0.0882,0.9099 0.23242,1.69336 0.14419,0.78346 0.39645,1.79149 0.72071,2.79101 0.32425,0.99953 0.72123,1.98924 1.30664,3.13282 0.3699,0.72259 0.94091,1.5373 1.45703,2.33203 0.81899,-1.00294 1.52188,-1.85974 2.59375,-3.13672 2.063,-2.45777 4.84015,-5.6414 6.62304,-7.58984 1.78288,-1.94844 2.57097,-2.66094 3.48829,-3.04297 0.91733,-0.38206 1.96263,-0.43251 2.99414,-0.47071 1.0315,-0.0382 2.05012,-0.0642 2.86523,0.0762 0.81512,0.14039 1.42674,0.44517 2.15234,1.34961 0.72559,0.90443 1.56498,2.40762 3.58985,5.1582 2.02487,2.75058 5.23506,6.74927 8.18945,10.48047 0.96591,1.21988 1.85154,2.36979 2.75586,3.53515 1.60385,-1.22633 2.99371,-2.32797 4.97266,-4.11523 0.44815,-0.40475 1.03424,-1.01381 1.53711,-1.48047 0.003,-0.002 0.005,-0.004 0.008,-0.006 2.22484,-2.06488 4.76294,-4.45783 6.79687,-6.54883 2.49591,-2.56594 4.07341,-4.42548 5.45508,-6.11914 1.38167,-1.69365 2.56659,-3.22195 3.47071,-4.60351 0.90409,-1.38157 1.52822,-2.61728 1.83398,-3.33008 0.30576,-0.7128 0.29233,-0.90339 0,-1.08203 -0.29233,-0.17864 -0.86412,-0.34384 -3.93945,-1.44532 -3.07534,-1.10147 -8.65452,-3.13951 -12.54493,-4.42578 -3.8904,-1.28626 -6.09335,-1.81984 -8.44921,-2.46289 -2.35586,-0.64305 -4.86363,-1.39596 -7.60157,-2.01367 -1.20406,-0.27165 -2.44542,-0.5036 -3.65039,-0.71484 z m 40.08008,13.20898 c -0.10033,0.11774 -0.2143,0.36851 -0.39258,0.74414 -0.35656,0.75127 -0.96775,1.99899 -1.93554,3.62891 -0.9678,1.62992 -2.293,3.6431 -3.56641,5.40039 -1.27341,1.75729 -2.49633,3.25922 -3.69336,4.71094 -1.19703,1.45172 -2.36693,2.85295 -3.10547,3.69336 -0.73854,0.84041 -1.04535,1.12071 -1.04492,1.24804 4.3e-4,0.12733 0.30648,0.102 1.01953,-0.0254 0.71305,-0.12738 1.83298,-0.35787 3.16992,-0.8418 1.33694,-0.48392 2.89208,-1.22218 4.63672,-2.01171 1.74464,-0.78954 3.67842,-1.63071 5.70313,-2.63672 2.0247,-1.00601 4.13875,-2.17641 6.02343,-3.2461 0.12488,-0.0709 0.20915,-0.12726 0.33204,-0.19726 -0.0824,-0.10245 -0.25063,-0.3133 -0.33008,-0.41406 -1.04431,-1.32433 -1.85962,-2.54679 -2.73828,-3.84571 -0.87867,-1.29892 -1.82205,-2.6733 -2.48438,-3.80664 -0.66233,-1.13334 -1.04284,-2.02503 -1.28516,-2.34375 -0.12115,-0.15936 -0.20826,-0.17438 -0.30859,-0.0566 z m -279.06445,3.04492 c -0.52982,0.21635 -1.04189,0.42565 -1.72461,0.69141 -1.89743,0.73859 -4.49505,1.75664 -6.34179,2.75 -1.84673,0.99336 -2.9427,1.96132 -4.07618,3.375 -1.13348,1.41368 -2.30481,3.27224 -3.20898,4.90234 -0.90417,1.6301 -1.53991,3.03242 -1.92188,4.48438 -0.38197,1.45195 -0.51032,2.95452 -0.65039,5.04297 -0.0447,0.66678 -0.10265,1.58497 -0.15039,2.34961 0.94468,0.54803 1.9086,1.14753 2.82032,1.78906 1.61085,1.13348 3.01108,2.33039 4.19531,3.47656 1.18423,1.14617 2.15181,2.24048 3.28515,3.58399 1.13335,1.3435 2.43215,2.93537 3.23438,3.9414 0.80223,1.00604 1.10764,1.42681 1.61719,1.71289 0.50955,0.28608 1.22315,0.4391 2.49023,0.71289 1.26708,0.2738 3.08924,0.66862 4.71289,1.07617 1.62365,0.40757 3.04806,0.82684 5.35938,1.69922 0.67275,0.25393 1.44228,0.59487 2.19335,0.90821 0.15006,-0.0275 0.2255,-0.0451 0.38477,-0.0742 2.57234,-0.47118 6.39262,-1.18474 10.21289,-2.07617 3.82028,-0.89143 7.64013,-1.96125 11.3457,-3.45118 3.70557,-1.48992 7.29696,-3.4003 10.77344,-5.33593 0.42068,-0.23423 0.70714,-0.41826 1.12305,-0.65235 -0.22203,-0.17331 -0.49183,-0.39596 -0.71289,-0.56836 -4.80089,-3.74393 -9.38664,-7.28469 -13.55079,-10.27734 -4.16414,-2.99265 -7.90686,-5.43738 -11.52343,-7.69141 -3.61658,-2.25402 -7.10717,-4.31625 -10.36719,-6.27734 -3.26002,-1.96109 -6.29019,-3.82053 -8.11132,-5.06836 -0.69699,-0.47757 -0.96225,-0.68214 -1.40821,-1.02344 z m 299.17578,0.85938 c 0.0951,0.2915 0.15009,0.60023 0.0996,0.87695 -0.10211,0.55967 -0.63643,0.99337 -1.375,1.56641 -0.73858,0.57303 -1.68153,1.2847 -3.32422,2.39258 -0.65079,0.43891 -1.42859,0.93437 -2.20899,1.44335 0.0435,0.0598 0.0894,0.11803 0.13282,0.17774 1.85495,2.5483 3.67435,5.05015 4.74609,6.35547 1.07175,1.30531 1.39616,1.41492 2.10742,1.46875 0.35136,0.0266 0.768,0.0234 1.20508,0.0312 0.0461,-0.0209 0.0528,-0.072 0.10547,-0.0899 0.37733,-0.12824 0.95576,-0.17556 1.61719,-0.18945 0.0866,-0.36004 -0.0215,-1.16444 -0.46485,-3.20508 -0.55038,-2.53338 -1.65332,-6.90892 -2.64062,-10.82812 z m -11.01758,9 c -1.04762,0.67849 -1.90994,1.25006 -3.08008,1.91015 -1.48985,0.84045 -3.62912,1.96172 -5.80664,2.98047 -2.17752,1.01875 -4.3946,1.93608 -6.62304,2.71289 -2.22846,0.77682 -4.46817,1.41212 -6.55665,2.04883 -1.07847,0.3288 -2.11453,0.66391 -3.11328,1.04883 0.9618,0.87975 1.58656,1.41442 2.69336,2.44141 1.23521,1.14613 3.11913,2.95603 5.37305,5.49023 2.25392,2.5342 4.87614,5.79409 6.74805,8.27734 1.8719,2.48326 2.99288,4.18814 3.50195,4.6211 0.50907,0.43295 0.40836,-0.40602 0.38281,-1.73047 -0.0256,-1.32445 0.0253,-3.13352 0.0508,-5.13281 0.0255,-1.99929 0.0251,-4.18874 0.12696,-5.98438 0.10181,-1.79564 0.30451,-3.19762 0.49609,-3.89844 0.19158,-0.70081 0.371,-0.69972 0.52344,-0.40625 0.15244,0.29348 0.28002,0.87897 0.39453,2.15235 0.11451,1.27338 0.21498,3.23474 0.48242,6.60937 0.26745,3.37463 0.7003,8.16118 1.19727,10.98828 0.49697,2.82711 1.05902,3.69296 1.88672,5.09375 0.82768,1.4008 1.92248,3.33804 2.99218,5.19727 1.06971,1.85923 2.11358,3.64209 3.31055,6.02344 1.19696,2.38135 2.54575,5.35973 3.48828,7.16797 0.14635,0.28076 0.24359,0.38646 0.37305,0.61523 0.37655,0.24087 0.83472,0.57287 1.19336,0.79883 2.20307,1.38803 4.03826,2.48197 5.91015,3.05469 1.48719,0.45501 3.15901,0.50526 5.25,0.36523 -0.1803,-3.39553 -0.36785,-6.30821 -0.56445,-9.71875 -0.20711,-3.59284 -0.42308,-7.77172 -0.57617,-11.31055 -0.15309,-3.53882 -0.24254,-6.43838 -0.47656,-8.85156 -0.23403,-2.41318 -0.61262,-4.34068 -1.14649,-5.875 -0.53386,-1.53432 -1.22379,-2.67516 -2.71484,-4.86328 -1.49106,-2.18812 -3.78421,-5.42256 -6.31836,-9.01367 -2.53416,-3.59111 -5.30927,-7.53759 -7.33399,-10.22461 -0.96306,-1.27809 -1.38515,-1.75559 -2.06445,-2.58789 z m -26.92773,11.52148 c -0.31587,0.15701 -0.65139,0.27035 -0.95899,0.44922 -1.79583,1.04429 -3.45152,2.49583 -4.91601,3.8457 -0.32361,0.29828 -0.62675,0.56673 -0.9375,0.85352 0.60561,0.83174 1.26353,1.68873 1.8164,2.49609 2.24118,3.27279 4.02467,6.35572 6.13867,9.46289 2.114,3.10716 4.55775,6.23924 6.72266,8.79883 2.16491,2.55959 4.04906,4.54647 5.53906,5.97266 1.49,1.42618 2.58658,2.29193 3.94922,3.01758 1.36263,0.72564 2.99169,1.31126 5.08008,2.59765 1.84739,1.13793 4.06782,2.82746 6.32422,4.47071 -0.12336,-0.27596 -0.16284,-0.42969 -0.30078,-0.72657 -1.59166,-3.42554 -4.18997,-8.28956 -6.26563,-11.93164 -2.07566,-3.64207 -3.62824,-6.06137 -5.44922,-8.64648 -1.82097,-2.58511 -3.91048,-5.33653 -6.03711,-7.99805 -2.12662,-2.66152 -4.29015,-5.23248 -6.1621,-7.43554 -1.73431,-2.04108 -3.20011,-3.73845 -4.54297,-5.22657 z m -279.57422,6.41602 c -0.019,0.28637 -0.0312,0.52318 -0.0508,0.80859 -0.17829,2.59781 -0.38317,5.12034 -0.625,6.48242 -0.18371,1.03474 -0.39981,1.45088 -0.64453,1.98047 0.37155,0.0122 0.74266,0.008 1.11719,0.0234 2.63606,0.10828 5.36209,0.30056 7.16406,0.49805 1.80197,0.19748 2.68009,0.40089 3.16992,0.4707 0.48983,0.0698 0.5927,0.007 0.60547,-0.1582 0.0128,-0.16488 -0.065,-0.43338 -0.30664,-0.80274 -0.24167,-0.36936 -0.64792,-0.83961 -1.46289,-1.69922 -0.81498,-0.8596 -2.03729,-2.10819 -3.25977,-3.27343 -1.22247,-1.16524 -2.4456,-2.24721 -3.64257,-3.11329 -0.71485,-0.51722 -1.38004,-0.83523 -2.06446,-1.21679 z m 216.87304,0.0566 c -1.40613,0.89136 -2.79726,1.81053 -4.05664,2.66211 -2.27583,1.53889 -4.13278,2.87596 -6.07031,4.49804 0.26472,0.003 0.51516,0.003 0.79883,0.008 1.04453,0.018 2.21494,0.0364 3.71875,0.14453 1.5038,0.1081 3.34166,0.3048 5.30469,0.58398 0.39972,0.0568 0.75859,0.12338 1.16406,0.18555 0.16966,-0.2494 0.4397,-0.65759 0.59766,-0.88672 1.15885,-1.68099 1.99982,-2.80146 3.32421,-4.48242 0.0991,-0.12579 0.26482,-0.3194 0.36914,-0.45117 -0.0676,-0.0739 -0.18612,-0.17809 -0.23437,-0.23438 -0.2706,-0.31569 -0.27003,-0.31599 -0.38672,-0.28906 -0.11669,0.0269 -0.35146,0.0803 -1.01758,-0.18945 -0.66611,-0.26974 -1.76482,-0.86435 -3.51172,-1.54883 z m -11.72656,8.55078 c -2.18091,1.9682 -4.57348,4.39196 -7.4082,7.51953 -3.08177,3.40014 -6.67144,7.60358 -9.3457,11.05469 -2.67427,3.4511 -4.43212,6.15044 -5.25977,7.44922 -0.82765,1.29877 -0.72669,1.19761 1.1582,0.16601 1.8849,-1.03159 5.55347,-2.99303 8.80078,-4.62304 3.24732,-1.63001 6.07414,-2.92977 8.30274,-3.85938 1.83776,-0.76658 3.80822,-1.42506 7.55273,-2.56055 -0.53933,-1.06858 -0.38644,-1.72699 0.22657,-2.76171 1.0187,-1.71951 3.03077,-4.64734 4.77539,-7.23243 0.77641,-1.15045 1.28323,-1.90131 1.94921,-2.89648 -1.65607,-0.7 -3.44053,-1.17124 -5.20117,-1.49609 -1.85499,-0.34227 -3.67398,-0.53957 -4.58398,-0.63868 -0.59256,-0.0645 -0.79541,-0.0884 -0.9668,-0.12109 z m -207.58398,5.16406 c -0.018,0.15166 -0.0561,0.28002 -0.0703,0.4336 -0.16544,1.783 -0.0654,3.66815 0.21484,5.82031 0.28024,2.15217 0.73948,4.57067 1.28711,6.99023 0.54763,2.41956 1.18502,4.84005 1.94922,6.99219 0.17179,0.48379 0.36288,0.89683 0.54492,1.35156 0.35822,-0.0497 0.68531,-0.13719 1.06446,-0.17578 1.23819,-0.12602 2.61499,-0.19867 4.09179,-0.20312 1.4768,-0.004 3.05416,0.0594 4.66602,0.18554 1.53019,0.11972 3.03809,0.29676 4.09766,0.44922 0.22971,-1.13717 0.40242,-2.33318 0.4707,-3.64453 0.1147,-2.20294 0.0135,-4.64957 0.11523,-6.44531 0.10176,-1.79574 0.40796,-2.94161 1.09571,-4.03711 0.68775,-1.09551 1.75613,-2.13849 3.19531,-3.11914 0.57968,-0.395 1.24086,-0.76315 1.90039,-1.11914 -0.31876,-0.14627 -0.57641,-0.30934 -0.9043,-0.44727 -2.96712,-1.24818 -6.25333,-2.08887 -9.58984,-2.51562 -3.33651,-0.42675 -6.72351,-0.43938 -9.62695,-0.46485 -1.52761,-0.0134 -3.05331,-0.0331 -4.50196,-0.0508 z m 335.67773,1.56836 c 0.0752,0.39324 0.1737,0.98191 0.24219,1.33203 0.72043,3.68293 1.02558,4.81777 1.4668,6.47461 0.44122,1.65685 1.01775,3.83501 1.66601,7.22071 0.64827,3.38569 1.36881,7.97758 1.87305,11.52539 0.0663,0.46628 0.0564,0.60795 0.11523,1.03906 0.25604,-0.0485 0.59065,-0.10398 0.83008,-0.15039 2.89068,-0.56033 4.47038,-0.94384 6.48242,-1.42774 2.01204,-0.48391 4.45658,-1.06936 6.83789,-1.69336 2.38131,-0.62399 4.69837,-1.28503 6.32813,-1.97265 1.62976,-0.68763 2.57329,-1.40137 3.24805,-2.10156 0.67476,-0.70018 1.08229,-1.38818 1.27343,-1.98633 0.19111,-0.59814 0.16538,-1.10674 -0.0762,-1.6543 -0.24155,-0.54755 -0.69983,-1.13369 -2.13867,-1.65625 -1.43885,-0.52256 -3.85974,-0.98121 -6.2793,-1.36328 -2.41956,-0.38207 -4.83821,-0.68764 -6.64648,-0.98047 -1.80827,-0.29282 -3.00444,-0.57358 -5.0293,-2.17773 -2.02486,-1.60416 -4.87887,-4.53229 -8.0625,-8.02149 -0.68835,-0.75441 -1.41929,-1.60679 -2.13086,-2.40625 z m -189.22461,8.42578 c -1.2962,1.64562 -2.46393,3.19657 -3.68164,4.94336 -2.61137,3.74599 -5.52784,8.39341 -7.38281,11.94141 -0.5015,0.95922 -0.75965,1.62781 -1.11914,2.42383 1.17477,0.38696 2.54429,0.64037 6.0293,0.75 5.6546,0.17784 17.01513,0.2042 22.89843,0.1914 5.88329,-0.0128 6.29064,-0.064 6.125,-0.73828 -0.16564,-0.67427 -0.90558,-1.97298 -1.82226,-3.09375 -0.91668,-1.12076 -2.01218,-2.06278 -4.43164,-3.1582 -2.41947,-1.09542 -6.16262,-2.34358 -9.14258,-4.08789 -2.97997,-1.74431 -5.19507,-3.98609 -6.73633,-7.27149 -0.27875,-0.5942 -0.50605,-1.25 -0.73633,-1.90039 z m -137.68945,14.35743 c -1.27423,0.004 -2.76974,0.11195 -3.51757,0.16601 -0.008,6e-4 -0.007,0.001 -0.0156,0.002 0.19937,0.39706 0.40497,0.8458 0.5957,1.19336 0.78965,1.43896 1.47637,2.43179 2.11329,3.09375 0.63692,0.66195 1.22261,0.99184 1.88476,1.19532 0.66214,0.20352 1.40163,0.28048 2.02539,0.24218 0.62376,-0.0384 1.13346,-0.19059 1.64258,-0.4707 0.50912,-0.28011 1.01685,-0.68888 1.27148,-0.89258 0.25462,-0.2037 0.25565,-0.20203 0.67579,-0.92773 0.31466,-0.54352 0.84892,-1.56473 1.35156,-2.72461 -0.0384,-0.009 -0.0945,-0.0165 -0.13086,-0.0254 -0.80594,-0.19815 -1.09341,-0.2523 -1.75977,-0.33789 -0.66636,-0.0856 -1.71072,-0.20248 -2.75976,-0.31055 -1.04905,-0.10807 -2.10273,-0.20754 -3.37696,-0.20312 z m 214.93359,1.74218 c -2.25397,-0.0127 -4.64855,-0.0893 -7.11914,0.0762 -2.47058,0.16547 -5.0159,0.57268 -8.39062,1.40039 -3.37472,0.82772 -7.57663,2.07602 -10.92578,3.08204 -3.34916,1.00601 -5.84504,1.76927 -7.58985,2.48242 -1.28492,0.52518 -2.26857,1.03064 -3.44531,1.54883 1.33427,0.66705 2.49306,0.7324 4.56445,0.76953 2.83974,0.0509 7.39941,0.0751 10.88868,0.11328 3.48925,0.0382 5.90779,0.0904 8.90039,0.20508 1.81587,0.0696 3.7704,0.13524 5.72656,0.20898 0.003,-0.002 0.0111,-0.0279 0.0137,-0.0293 0.0285,-0.0149 0.0295,-0.015 0.39258,-0.32421 0.36303,-0.30921 1.08712,-0.92745 1.91406,-1.42579 0.82694,-0.49833 1.75611,-0.8773 3.16992,-1.33203 1.41381,-0.45472 3.31336,-0.98413 5.0918,-1.44336 0.98632,-0.25468 1.67414,-0.3718 2.50976,-0.55468 -0.51355,-0.79091 -1.36913,-1.84546 -3.67578,-4.38282 -0.0964,-0.10601 -0.25478,-0.2839 -0.35546,-0.39453 -0.48648,0.002 -1.18462,0.003 -1.66993,0 z m 6.43164,6.94922 c -0.098,0.0153 -0.14748,0.0189 -0.24609,0.0352 -1.44982,0.23858 -2.94456,0.57902 -4.17383,0.9707 -1.22927,0.39168 -2.19392,0.83424 -2.79297,1.18555 -0.56158,0.32934 -0.8013,0.57957 -1.17773,0.86914 1.98983,-0.007 3.69979,-0.0685 4.91211,-0.25586 1.5661,-0.24204 2.50942,-0.64976 3.03125,-1.34961 0.30435,-0.40817 0.42352,-0.92068 0.44726,-1.45508 z" />
    <path
       style="fill:#203239;fill-opacity:1;stroke:#000000;stroke-width:0;stroke-linecap:butt;stroke-linejoin:miter;stroke-miterlimit:4;stroke-dasharray:none;stroke-opacity:1"
       d="m -755.69069,349.34732 c 5.18696,-1.40524 15.6322,-4.79094 29.78753,-8.71694 14.15533,-3.92601 32.01994,-8.39216 53.99128,-12.6423 21.97134,-4.25015 48.0479,-8.28409 70.81155,-11.09349 22.76366,-2.8094 42.21303,-4.39417 60.65451,-5.11449 18.44148,-0.72032 35.87388,-0.57624 55.50397,0.25222 19.63009,0.82846 41.4566,2.34119 66.23735,5.36681 24.78075,3.02562 52.51411,7.56381 72.93652,11.85009 20.4224,4.28628 33.53273,8.32022 39.87176,10.08546 6.33904,1.76523 5.90683,1.26098 -2.16123,-2.34117 -8.06806,-3.60215 -23.77162,-10.30138 -40.44817,-16.35254 -16.67656,-6.05117 -34.32505,-11.45377 -52.29827,-16.24426 -17.97321,-4.7905 -36.27003,-8.96851 -54.31533,-11.34582 -18.0453,-2.37732 -35.83787,-2.9536 -54.7836,-3.16973 -18.94573,-0.21612 -39.04341,-0.0721 -63.06785,2.59326 -24.02443,2.66532 -51.97389,7.85182 -79.09588,15.23559 -27.12198,7.38378 -53.41464,16.96439 -71.38785,24.31213 -17.97321,7.34775 -27.62586,12.46221 -32.48854,15.30817 -4.86268,2.84596 -4.93471,3.42224 0.25225,2.01701 z"
       id="path836" />
  </g>
  <text
     xml:space="preserve"
     style="font-weight:bold;font-size:10.2503px;line-height:0.75;font-family:'Black Ops One';-inkscape-font-specification:'Black Ops One Bold';fill:#203239;fill-opacity:1;stroke-width:0.256257"
     x="61.847786"
     y="91.977669"
     id="text5926"
     transform="scale(1.0017547,0.99824837)"><tspan
       id="tspan5924"
       style="font-size:16.4005px;text-align:center;text-anchor:middle;fill:#203239;fill-opacity:1;stroke-width:0.256257"
       x="61.847786"
       y="91.977669"><tspan
   style="font-style:normal;font-variant:normal;font-weight:bold;font-stretch:normal;font-family:'Black Ops One';-inkscape-font-specification:'Black Ops One Bold';fill:#203239;fill-opacity:1"
   id="tspan5241">GRIZZLY BEA</tspan>R</tspan><tspan
       style="font-style:normal;font-variant:normal;font-weight:900;font-stretch:normal;font-size:6.83356px;font-family:'Lexend Peta';-inkscape-font-specification:'Lexend Peta Heavy';text-align:center;letter-spacing:-0.843089px;text-anchor:middle;fill:#203239;fill-opacity:1;stroke-width:0.256257"
       x="61.847786"
       y="100.55187"
       id="tspan5928">MIXED MARTIAL ARTS</tspan><tspan
       style="font-style:normal;font-variant:normal;font-weight:900;font-stretch:normal;font-size:6.83356px;font-family:'Lexend Peta';-inkscape-font-specification:'Lexend Peta Heavy';text-align:center;letter-spacing:-0.843089px;text-anchor:middle;fill:#203239;fill-opacity:1;stroke-width:0.256257"
       x="61.426239"
       y="108.23959"
       id="tspan5930">ACADEMY</tspan></text>
</svg>
