<?xml version="1.0" encoding="UTF-8" standalone="no"?>
<svg
   fill="#000000"
   viewBox="0 0 16 16"
   width="32px"
   height="32px"
   version="1.1"
   id="svg834"
   xmlns="http://www.w3.org/2000/svg"
   xmlns:svg="http://www.w3.org/2000/svg">
  <defs
     id="defs838" />
  <path
     d="M 7.5 1 C 3.914063 1 1 3.914063 1 7.5 C 1 8.796875 1.417969 9.984375 2.070313 11 L 0.953125 14.121094 L 4.429688 13.140625 C 5.351563 13.644531 6.375 14 7.5 14 C 11.085938 14 14 11.085938 14 7.5 C 14 3.914063 11.085938 1 7.5 1 Z M 7.5 2 C 10.542969 2 13 4.457031 13 7.5 C 13 10.542969 10.542969 13 7.5 13 C 6.457031 13 5.492188 12.707031 4.65625 12.203125 L 4.472656 12.089844 L 2.546875 12.628906 L 3.171875 10.894531 L 3.019531 10.683594 C 2.378906 9.78125 2 8.6875 2 7.5 C 2 4.457031 4.457031 2 7.5 2 Z M 5.0625 4 C 4.949219 4 4.761719 4.046875 4.601563 4.234375 C 4.445313 4.417969 4 4.867188 4 5.78125 C 4 6.691406 4.617188 7.574219 4.703125 7.699219 C 4.789063 7.824219 5.917969 9.695313 7.644531 10.5 C 8.054688 10.691406 8.375 10.804688 8.625 10.890625 C 9.039063 11.03125 9.414063 11.011719 9.710938 10.964844 C 10.042969 10.910156 10.730469 10.515625 10.875 10.082031 C 11.015625 9.648438 11.019531 9.277344 10.972656 9.199219 C 10.933594 9.121094 10.816406 9.074219 10.644531 8.984375 C 10.472656 8.890625 9.625 8.441406 9.46875 8.382813 C 9.3125 8.316406 9.195313 8.289063 9.078125 8.472656 C 8.964844 8.660156 8.636719 9.078125 8.535156 9.199219 C 8.433594 9.324219 8.335938 9.339844 8.164063 9.246094 C 7.988281 9.152344 7.433594 8.957031 6.777344 8.324219 C 6.265625 7.832031 5.917969 7.226563 5.820313 7.039063 C 5.71875 6.851563 5.808594 6.753906 5.894531 6.664063 C 5.972656 6.578125 6.066406 6.445313 6.152344 6.335938 C 6.238281 6.230469 6.265625 6.148438 6.324219 6.027344 C 6.382813 5.902344 6.355469 5.792969 6.3125 5.703125 C 6.265625 5.609375 5.921875 4.695313 5.78125 4.324219 C 5.640625 3.964844 5.496094 4.011719 5.390625 4.007813 C 5.292969 4 5.175781 4 5.0625 4 Z"
     id="path832" />
  <path
     style="fill:#ffffff;stroke-width:0"
     d="m 1.9694719,28.149618 c 0.01289,-0.03401 0.5138491,-1.43197 1.1132414,-3.106568 L 4.1725176,21.998324 3.9224914,21.582234 C 1.6001644,17.717448 1.4087482,13.201949 3.3986103,9.2238992 4.0857406,7.8502169 4.8613974,6.7970623 6.0001868,5.6915861 7.025614,4.696156 8.0326305,3.9858569 9.3040752,3.3611886 10.545276,2.7513794 11.782625,2.3649582 13.191223,2.1472418 c 0.822615,-0.1271456 2.796102,-0.1252739 3.636363,0.00345 3.221231,0.4934717 6.080723,2.1031174 8.159128,4.5928797 2.688194,3.2202397 3.636243,7.6031095 2.523131,11.6645325 -0.596408,2.176117 -1.744796,4.144701 -3.360198,5.760104 -1.034423,1.034423 -2.128316,1.814908 -3.459992,2.468679 -1.813049,0.890097 -3.669718,1.325496 -5.652296,1.325496 -0.966065,0 -1.745817,-0.09574 -2.698801,-0.331377 -0.948516,-0.234528 -1.643093,-0.490332 -2.6583072,-0.97902 l -0.8275862,-0.39837 -3.3103449,0.931236 c -1.8206896,0.512179 -3.3746813,0.952694 -3.4533149,0.978923 -0.107884,0.03598 -0.1372184,0.03251 -0.1195329,-0.01416 z M 16.802508,25.881111 c 2.434009,-0.437199 4.468952,-1.506867 6.119122,-3.216517 1.349672,-1.39832 2.247162,-2.989782 2.730046,-4.841018 0.27188,-1.042307 0.350213,-1.674568 0.350213,-2.826711 0,-1.147385 -0.07846,-1.785026 -0.345602,-2.808777 C 24.49748,7.7473108 20.707844,4.5088857 16.11457,4.0342343 c -1.177932,-0.121723 -2.733055,-0.0028 -3.90724,0.2987885 -3.0802273,0.7911594 -5.6894127,2.922606 -7.0926343,5.7939822 -0.5295914,1.083689 -0.8418734,2.087659 -1.0311218,3.315001 -0.1172613,0.760482 -0.117672,2.358808 -7.99e-4,3.109718 0.2652145,1.704005 0.8407871,3.195411 1.761469,4.564263 0.2412061,0.358621 0.4390085,0.674609 0.4395608,0.702195 5.522e-4,0.02759 -0.2742699,0.81467 -0.610716,1.749075 -0.3364461,0.934405 -0.6050736,1.704403 -0.5969499,1.711108 0.00812,0.0067 0.8810864,-0.230968 1.9399174,-0.528162 l 1.9251471,-0.540352 0.3204679,0.196148 c 1.2385118,0.758053 2.8003268,1.315293 4.2576088,1.519071 0.738282,0.103237 2.602722,0.07827 3.283228,-0.04396 z"
     id="path957"
     transform="scale(0.5)" />
  <path
     style="fill:#e0ddaa;stroke-width:0;fill-opacity:1"
     d="M 18.090464,21.942811 C 17.652577,21.889316 17.201821,21.752274 16.326019,21.406372 14.485127,20.679305 13.222876,19.829817 11.786321,18.351181 10.220103,16.739086 8.7754583,14.578519 8.303141,13.141845 7.832965,11.711684 7.9931147,10.210082 8.7323999,9.1170128 9.0397602,8.6625656 9.4252402,8.2617815 9.6682562,8.1440017 9.8792176,8.0417575 9.9708399,8.0299786 10.482759,8.0392902 c 0.849008,0.015443 0.812407,-0.027252 1.471203,1.7161957 0.23454,0.6206901 0.496019,1.3015651 0.581065,1.5130571 0.08505,0.211493 0.15461,0.437198 0.154589,0.501568 -9.1e-5,0.270034 -0.452116,1.007488 -0.986451,1.609344 -0.289549,0.326137 -0.221415,0.581924 0.411072,1.54324 1.054909,1.603353 2.321345,2.714808 3.972588,3.486438 0.263754,0.123253 0.540923,0.224096 0.615932,0.224096 0.207238,0 0.35467,-0.14563 0.930707,-0.91933 0.291049,-0.39092 0.580167,-0.777347 0.642485,-0.858727 0.147085,-0.192075 0.354313,-0.194699 0.758534,-0.0096 0.740829,0.339228 2.671491,1.370353 2.796238,1.493411 0.121796,0.120148 0.137854,0.173186 0.137272,0.453402 -8.88e-4,0.426981 -0.165309,1.198457 -0.324977,1.524808 -0.287573,0.587777 -1.338412,1.356854 -2.11442,1.547481 -0.389592,0.0957 -1.015848,0.12973 -1.438132,0.07814 z"
     id="path996"
     transform="scale(0.5)" />
  <path
     style="fill:#e0ddaa;fill-opacity:1;stroke-width:0;opacity:1;stroke:#e0ddaa;stroke-opacity:1"
     d="m 2.0062696,28.145067 c 0,-0.0081 0.4952059,-1.395682 1.1004574,-3.083435 L 4.2071845,21.992989 3.9120768,21.495992 C 3.0148414,19.984938 2.4485108,18.398276 2.1741641,16.626959 2.0500118,15.825372 2.0494869,14.023845 2.1731703,13.216301 2.7174877,9.66239 4.625203,6.5325606 7.4984326,4.4795865 9.1153761,3.3242515 10.980006,2.5544354 13.015674,2.2017831 c 0.615485,-0.1066246 2.536555,-0.1499801 3.310345,-0.074709 1.968968,0.1915328 4.071959,0.9541083 5.793103,2.1006652 0.855813,0.570108 1.473882,1.0882892 2.214572,1.8566703 1.855676,1.9250502 3.019789,4.2726624 3.461885,6.9814214 0.150568,0.922546 0.162097,2.828301 0.0226,3.736677 -0.211894,1.37986 -0.60037,2.619366 -1.210417,3.862069 -0.6712,1.367275 -1.49024,2.491264 -2.614866,3.588448 -1.015045,0.990277 -1.898974,1.626325 -3.138039,2.258038 -1.922774,0.980289 -3.714921,1.410859 -5.856283,1.406992 -0.988953,-0.0018 -1.691553,-0.08433 -2.589713,-0.304267 C 11.40073,27.366925 10.753139,27.126716 9.5274794,26.545006 L 8.8480627,26.222547 8.0980123,26.435593 c -0.4125272,0.117175 -1.9237176,0.543512 -3.3582004,0.947415 -1.4344827,0.403903 -2.6363636,0.743927 -2.6708464,0.755611 -0.034483,0.01168 -0.062696,0.01459 -0.062696,0.0064 z M 16.802508,25.908584 c 0.17931,-0.03135 0.587821,-0.122943 0.907801,-0.203531 4.52889,-1.140612 7.846926,-5.003039 8.276229,-9.63411 0.06933,-0.747872 0.02971,-2.186365 -0.07808,-2.835213 C 25.72314,12.120234 25.361371,11.018409 24.839875,9.9811912 23.398352,7.1141071 20.732731,5.0141169 17.579937,4.2617742 16.580646,4.0233159 16.027537,3.9725951 14.77116,4.0042052 13.254917,4.0423536 12.365387,4.1951025 11.195926,4.6181401 7.2204645,6.0562119 4.3773503,9.7652971 4.0070727,13.996612 c -0.067142,0.767254 -0.028339,2.049374 0.08262,2.729962 0.2548107,1.562924 0.83864,3.048552 1.7348281,4.414492 0.2262401,0.344827 0.409199,0.660815 0.4065753,0.702194 -0.00262,0.04138 -0.2658818,0.814119 -0.585018,1.7172 -0.3191362,0.903081 -0.5802476,1.665266 -0.5802476,1.693746 0,0.06482 -0.08823,0.08662 2.0718746,-0.511903 l 1.7960126,-0.497642 0.3868037,0.226768 c 1.2467916,0.730943 2.8485796,1.293706 4.2217986,1.48326 0.43471,0.06001 2.84857,0.02587 3.260188,-0.0461 z"
     id="path1072"
     transform="scale(0.5)" />
</svg>
